 http://www.imdb.com/title/tt0117039/

      Format : AVI
      File size : 1.00 GiB
      Duration : 2h 7mn
      Overall bit rate : 1 129 Kbps

   Video
      Format : MPEG-4 Visual
      Muxing mode : Packed bitstream
      Codec ID : XVID
      Duration : 2h 7mn
      Bit rate : 735 Kbps
      Width : 608 pixels
      Height : 336 pixels
      Display aspect ratio : 16/9
      Frame rate : 25.000 fps
      Resolution : 24 bits
      Colorimetry : 4:2:0
      Scan type : Progressive
      Bits/(Pixel*Frame) : 0.144
      Stream size : 669 MiB (65%)
      Writing library : XviD 50
   Audio
      Format : AC-3
      Format/Info : Audio Coding 3
      Codec ID : 2000
      Duration : 2h 7mn
      Bit rate mode : Constant
      Bit rate : 384 Kbps
      Channel(s) : 6 channels
      Channel positions : Front: L C R, Surround: L R, LFE
      Sampling rate : 48.0 KHz
      Stream size : 349 MiB (34%)

Screenshots: 
http://img715.imageshack.us/gal.php?g=michaelcollins199617805.jpg


Found this on another site. Just want to share it.
Credits go to the original rippers.